<svg width="36" height="36" viewBox="0 0 36 36" fill="none" xmlns="http://www.w3.org/2000/svg">
<rect width="36" height="36" rx="18" fill="#1378F5"/>
<path fill-rule="evenodd" clip-rule="evenodd" d="M13.693 23.5111L21.5914 15.6127L21.5914 22.5141C21.5914 23.0656 22.044 23.5182 22.5955 23.5182C23.147 23.5182 23.5925 23.0727 23.5925 22.5212L23.5925 13.2015C23.5925 12.65 23.147 12.2045 22.5955 12.2045L13.2758 12.2045C12.7243 12.2045 12.2788 12.6499 12.2788 13.2015C12.2788 13.753 12.7243 14.1985 13.2758 14.1985L20.1772 14.1985L12.2788 22.0969C11.8899 22.4858 11.8899 23.1222 12.2788 23.5111C12.6677 23.9 13.3041 23.9 13.693 23.5111Z" fill="white"/>
</svg>
