<svg width="36" height="36" viewBox="0 0 36 36" fill="none" xmlns="http://www.w3.org/2000/svg">
<rect width="36" height="36" rx="18" fill="#DCEBFE"/>
<path fill-rule="evenodd" clip-rule="evenodd" d="M13.6925 23.5111L21.5909 15.6127L21.5909 22.5141C21.5909 23.0656 22.0435 23.5182 22.595 23.5182C23.1466 23.5182 23.592 23.0727 23.592 22.5212L23.592 13.2015C23.592 12.65 23.1466 12.2045 22.595 12.2045L13.2753 12.2045C12.7238 12.2045 12.2783 12.6499 12.2783 13.2015C12.2783 13.753 12.7238 14.1985 13.2753 14.1985L20.1767 14.1985L12.2783 22.0969C11.8894 22.4858 11.8894 23.1222 12.2783 23.5111C12.6672 23.9 13.3036 23.9 13.6925 23.5111Z" fill="#1378F5"/>
</svg>
