<svg width="16" height="16" viewBox="0 0 16 16" fill="none" xmlns="http://www.w3.org/2000/svg">
<path fill-rule="evenodd" clip-rule="evenodd" d="M7.73814 1.05905C7.91407 0.979932 8.11553 0.980335 8.29114 1.06016L14.5663 3.91251C14.8059 4.02141 14.9597 4.26031 14.9597 4.52349V12.4094C14.9597 12.6704 14.8084 12.9078 14.5717 13.0179L8.29653 15.9374C8.11789 16.0205 7.91176 16.0209 7.73279 15.9385L1.39051 13.019C1.15249 12.9095 1 12.6714 1 12.4094V4.52349C1 4.25934 1.15495 4.01975 1.39586 3.9114L7.73814 1.05905ZM2.34228 5.57126V11.9795L7.34228 14.2811V7.87285L2.34228 5.57126ZM8.68456 7.87093V14.2764L13.6174 11.9814V5.57595L8.68456 7.87093ZM12.6823 4.53058L8.01195 2.40769L3.29162 4.53059L8.01192 6.70343L12.6823 4.53058Z" fill="#8C8C8C"/>
</svg>
