<svg width="24" height="24" viewBox="0 0 24 24" fill="none" xmlns="http://www.w3.org/2000/svg">
<path fill-rule="evenodd" clip-rule="evenodd" d="M12 2C6.48 2 2 6.48 2 12C2 17.52 6.48 22 12 22C17.52 22 22 17.52 22 12C22 6.48 17.52 2 12 2ZM4 12C4 7.58 7.58 4 12 4C13.85 4 15.55 4.63 16.9 5.69L5.69 16.9C4.63 15.55 4 13.85 4 12ZM11.9999 19.9999C10.1499 19.9999 8.44994 19.3699 7.09994 18.3099L18.3099 7.09994C19.3699 8.44994 19.9999 10.1499 19.9999 11.9999C19.9999 16.4199 16.4199 19.9999 11.9999 19.9999Z" fill="#8C8C8C"/>
</svg>
