<svg width="18" height="18" viewBox="0 0 18 18" fill="none" xmlns="http://www.w3.org/2000/svg">
<path fill-rule="evenodd" clip-rule="evenodd" d="M12.8175 3.41988C12.2925 2.64738 11.6925 1.92738 11.0175 1.28238C10.755 1.02738 10.3125 1.26738 10.3875 1.62738C10.53 2.33238 10.68 3.26238 10.68 4.09488C10.68 5.63988 9.6675 6.89238 8.1225 6.89238C6.9675 6.89238 6.0225 6.19488 5.61 5.19738C5.535 5.04738 5.505 4.95738 5.46 4.79238C5.3775 4.47738 4.965 4.37988 4.785 4.65738C4.65 4.85988 4.5225 5.06238 4.4025 5.27988C3.51 6.80988 3 8.59488 3 10.4999C3 13.8149 5.685 16.4999 9 16.4999C12.315 16.4999 15 13.8149 15 10.4999C15 7.88238 14.19 5.45238 12.8175 3.41988ZM8.78268 14.2502C7.44768 14.2502 6.36768 13.2002 6.36768 11.8952C6.36768 10.6802 7.15518 9.82522 8.47518 9.55522C9.57768 9.33022 10.7102 8.85772 11.4977 8.11522C11.7077 7.92022 12.0527 8.01022 12.1127 8.28772C12.2852 9.05272 12.3752 9.84772 12.3752 10.6502C12.3827 12.6377 10.7702 14.2502 8.78268 14.2502Z" fill="#8C8C8C"/>
</svg>
