<svg width="20" height="21" viewBox="0 0 20 21" fill="none" xmlns="http://www.w3.org/2000/svg">
<path fill-rule="evenodd" clip-rule="evenodd" d="M15.2506 5.25831C14.9256 4.93331 14.4006 4.93331 14.0756 5.25831L10.0006 9.32498L5.92559 5.24998C5.60059 4.92498 5.07559 4.92498 4.75059 5.24998C4.42559 5.57498 4.42559 6.09998 4.75059 6.42498L8.82559 10.5L4.75059 14.575C4.42559 14.9 4.42559 15.425 4.75059 15.75C5.07559 16.075 5.60059 16.075 5.92559 15.75L10.0006 11.675L14.0756 15.75C14.4006 16.075 14.9256 16.075 15.2506 15.75C15.5756 15.425 15.5756 14.9 15.2506 14.575L11.1756 10.5L15.2506 6.42498C15.5673 6.10831 15.5673 5.57498 15.2506 5.25831Z" fill="#8C8C8C"/>
</svg>
