<svg width="16" height="16" viewBox="0 0 16 16" fill="none" xmlns="http://www.w3.org/2000/svg">
<path fill-rule="evenodd" clip-rule="evenodd" d="M14.8806 1.13018C14.4547 0.704242 13.7666 0.704242 13.3407 1.13018L8.00005 6.45987L2.65943 1.11926C2.2335 0.69332 1.54544 0.69332 1.1195 1.11926C0.693564 1.5452 0.693564 2.23325 1.1195 2.65919L6.46012 7.9998L1.1195 13.3404C0.693564 13.7664 0.693564 14.4544 1.1195 14.8804C1.54544 15.3063 2.2335 15.3063 2.65943 14.8804L8.00005 9.53974L13.3407 14.8804C13.7666 15.3063 14.4547 15.3063 14.8806 14.8804C15.3065 14.4544 15.3065 13.7664 14.8806 13.3404L9.53998 7.9998L14.8806 2.65919C15.2956 2.24417 15.2956 1.5452 14.8806 1.13018Z" fill="white"/>
</svg>
