<svg width="24" height="24" viewBox="0 0 24 24" fill="none" xmlns="http://www.w3.org/2000/svg">
<path fill-rule="evenodd" clip-rule="evenodd" d="M15.5 4H18C18.55 4 19 4.45 19 5C19 5.55 18.55 6 18 6H6C5.45 6 5 5.55 5 5C5 4.45 5.45 4 6 4H8.5L9.21 3.29C9.39 3.11 9.65 3 9.91 3H14.09C14.35 3 14.61 3.11 14.79 3.29L15.5 4ZM8 21C6.9 21 6 20.1 6 19V9C6 7.9 6.9 7 8 7H16C17.1 7 18 7.9 18 9V19C18 20.1 17.1 21 16 21H8ZM13.7225 9.07062C13.3359 9.07062 13.0225 9.38402 13.0225 9.77062V18.3232C13.0225 18.7098 13.3359 19.0232 13.7225 19.0232H15.3078C15.6944 19.0232 16.0078 18.7098 16.0078 18.3232V9.77062C16.0078 9.38402 15.6944 9.07062 15.3078 9.07062H13.7225ZM8.01172 9.77062C8.01172 9.38402 8.32512 9.07062 8.71172 9.07062H10.2971C10.6837 9.07062 10.9971 9.38402 10.9971 9.77062V18.3232C10.9971 18.7098 10.6837 19.0232 10.2971 19.0232H8.71172C8.32512 19.0232 8.01172 18.7098 8.01172 18.3232V9.77062Z" fill="#8C8C8C"/>
</svg>
