<svg width="20" height="18" viewBox="0 0 20 18" fill="none" xmlns="http://www.w3.org/2000/svg">
<path fill-rule="evenodd" clip-rule="evenodd" d="M17.66 0.989922C15.02 -0.810078 11.76 0.0299217 9.99997 2.08992C8.23997 0.0299217 4.97997 -0.820078 2.33997 0.989922C0.939969 1.94992 0.0599691 3.56992 -3.09162e-05 5.27992C-0.140031 9.15992 3.29997 12.2699 8.54997 17.0399L8.64997 17.1299C9.40997 17.8199 10.58 17.8199 11.34 17.1199L11.45 17.0199C16.7 12.2599 20.13 9.14992 20 5.26992C19.94 3.56992 19.06 1.94992 17.66 0.989922ZM10.1 15.5499L9.99997 15.6499L9.89997 15.5499C5.13997 11.2399 1.99997 8.38992 1.99997 5.49992C1.99997 3.49992 3.49997 1.99992 5.49997 1.99992C7.03997 1.99992 8.53997 2.98992 9.06997 4.35992H10.94C11.46 2.98992 12.96 1.99992 14.5 1.99992C16.5 1.99992 18 3.49992 18 5.49992C18 8.38992 14.86 11.2399 10.1 15.5499Z" fill="#8C8C8C"/>
</svg>
