<svg width="343" height="84" viewBox="0 0 343 84" fill="none" xmlns="http://www.w3.org/2000/svg">
<path fill-rule="evenodd" clip-rule="evenodd" d="M116.805 19.2415H108.32H97.9003V8.4931H154.951V0.000488281H89.4077V3.58577V8.4931V19.2415V26.8452V27.7266H108.32V56.2818V64.767H116.805H127.225H135.71V56.2818V27.7266H146.458V56.2818V64.767H154.951H165.363V75.5153H108.32V84.0005H173.856V80.4227V75.5153V64.767V57.1632V56.2818H154.951V27.7266V19.2415H146.458H135.71H127.554H127.225V56.2818H116.805V27.7266V19.2415Z" fill="#1378F5"/>
<path fill-rule="evenodd" clip-rule="evenodd" d="M51.7101 39.3486C51.7101 47.3856 49.432 54.0183 44.8981 59.2468C40.1252 64.7368 33.7688 67.493 25.8215 67.493C18.5986 67.493 12.4887 65.0057 7.49173 60.0311C2.49475 55.0566 0 48.9616 0 41.7387C0 34.5159 2.58439 28.518 7.70087 23.6854C12.7203 18.9424 18.8302 16.5298 26.0978 16.5298C31.3637 16.5298 36.2412 18.0311 40.7153 21.0263C45.1894 24.0215 48.2219 27.9728 49.8129 32.8801H37.0702C34.4336 28.7048 30.6914 26.6134 25.8289 26.6134C21.6984 26.6134 18.2326 28.0774 15.4391 31.0053C12.6456 33.9333 11.2488 37.4663 11.2488 41.5968C11.2488 46.0486 12.541 49.7757 15.1328 52.7709C17.8517 55.9081 21.422 57.4692 25.8289 57.4692C32.2824 57.4692 36.6146 54.5188 38.8405 48.6105H22.2138V39.3411H51.7176L51.7101 39.3486ZM84.1793 66.5369H57.4017V17.4784H84.1793V27.3603H68.5086V36.6297H83.8357V46.5117H68.5086V56.528H84.1793V66.5444V66.5369ZM215.811 66.5369H202.867L190.535 48.8197V66.5369H179.428V17.4784H197.213C202.576 17.4784 206.878 18.9125 210.127 21.7733C213.376 24.634 214.997 28.7197 214.997 34.0379C214.997 37.9443 213.839 41.3279 211.524 44.1887C209.208 47.0494 206.138 48.7524 202.329 49.2977L215.819 66.5369H215.811ZM190.259 27.3603V41.806H195.233C197.78 41.806 199.909 41.3279 201.634 40.3868C203.36 39.4307 204.226 37.5335 204.226 34.6877C204.226 32.3797 203.569 30.5871 202.247 29.2949C200.932 28.0101 199.11 27.3678 196.794 27.3678H190.251L190.259 27.3603ZM265.407 66.5369H253.21L250.073 57.6783H232.498L229.226 66.5369H217.238L236.792 17.4784H245.92L265.407 66.5369ZM247.01 48.5508L241.423 30.9755L235.702 48.5508H247.01ZM311.396 42.0076C311.396 49.9998 309.081 56.1321 304.45 60.4046C299.953 64.4903 293.664 66.5369 285.575 66.5369H269.493V17.4784H287.278C294.769 17.4784 300.663 19.6893 304.958 24.1186C309.252 28.5479 311.396 34.5084 311.396 42.0076ZM300.289 42.1794C300.289 37.6232 299.176 34.0453 296.943 31.461C294.568 28.7272 291.154 27.3603 286.688 27.3603H280.6V56.655H286.62C295.74 56.655 300.289 51.8298 300.289 42.1794ZM342.79 66.5369H316.012V17.4784H342.79V27.3603H327.119V36.6297H342.446V46.5117H327.119V56.528H342.79V66.5444V66.5369Z" fill="white"/>
</svg>
