<svg width="36" height="36" viewBox="0 0 36 36" fill="none" xmlns="http://www.w3.org/2000/svg">
<rect x="36" y="36" width="36" height="36" rx="18" transform="rotate(-180 36 36)" fill="#DCEBFE"/>
<path fill-rule="evenodd" clip-rule="evenodd" d="M11.0581 18.8509L22.2281 18.8509L17.3481 23.7309C16.9581 24.1209 16.9581 24.7609 17.3481 25.1509C17.7381 25.5409 18.3681 25.5409 18.7581 25.1509L25.3481 18.5609C25.7381 18.1709 25.7381 17.5409 25.3481 17.1509L18.7581 10.5609C18.3681 10.1709 17.7381 10.1709 17.3481 10.5609C16.9581 10.9509 16.9581 11.5809 17.3481 11.9709L22.2281 16.8509L11.0581 16.8509C10.5081 16.8509 10.0581 17.3009 10.0581 17.8509C10.0581 18.4009 10.5081 18.8509 11.0581 18.8509Z" fill="#1378F5"/>
</svg>
