<svg width="21" height="18" viewBox="0 0 21 18" fill="none" xmlns="http://www.w3.org/2000/svg">
<path fill-rule="evenodd" clip-rule="evenodd" d="M16.01 10.9998H15.21L14.94 10.7298C16.09 9.38979 16.7 7.58979 16.45 5.63979C16.11 2.99979 14.1 0.779786 11.5 0.179786C7.25998 -0.800214 3.50998 2.52979 3.50998 6.49979H1.40998C0.939975 6.49979 0.729975 7.08979 1.09998 7.38979L4.49998 10.1398C4.68998 10.3398 5.00998 10.3498 5.20998 10.1498L8.10997 7.35979C8.42998 7.04979 8.20997 6.49979 7.75997 6.49979H5.50997C5.50997 4.00979 7.50998 2.01979 9.96998 1.99979C12.41 1.97979 14.51 4.04979 14.51 6.48979C14.51 8.96979 12.49 10.9998 10.01 10.9998C9.55998 10.9998 9.11998 10.9298 8.70998 10.8098C8.36998 10.7098 7.99998 10.8098 7.74998 11.0698C7.21998 11.5998 7.42998 12.5198 8.13998 12.7298C8.72998 12.8998 9.35998 12.9998 10.01 12.9998C11.62 12.9998 13.09 12.4098 14.23 11.4298L14.5 11.6998V12.4898L18.77 16.7398C19.18 17.1498 19.84 17.1498 20.25 16.7398C20.66 16.3298 20.66 15.6598 20.25 15.2498L16.01 10.9998Z" fill="#D1D1D1"/>
</svg>
