<svg width="28" height="22" viewBox="0 0 28 22" fill="none" xmlns="http://www.w3.org/2000/svg">
<path fill-rule="evenodd" clip-rule="evenodd" d="M1.92485 9.47134C9.44103 6.36664 14.453 4.31982 16.9607 3.3309C24.1209 0.50734 25.6087 0.016857 26.5784 0.000660967C26.7917 -0.00290117 27.2686 0.0472134 27.5775 0.28486C27.8383 0.485525 27.9101 0.756594 27.9444 0.946846C27.9788 1.1371 28.0215 1.5705 27.9876 1.90914C27.5995 5.77439 25.9206 15.1543 25.0665 19.4835C24.7051 21.3153 23.9934 21.9295 23.3045 21.9896C21.8072 22.1202 20.6703 21.0515 19.2201 20.1502C16.9509 18.7399 15.669 17.862 13.4663 16.4858C10.9207 14.8954 12.5709 14.0213 14.0216 12.5927C14.4013 12.2189 20.9982 6.52992 21.1259 6.01384C21.1419 5.9493 21.1567 5.70871 21.0059 5.58167C20.8552 5.45463 20.6327 5.49807 20.4721 5.53262C20.2445 5.58159 16.6194 7.85328 9.59681 12.3477C8.56784 13.0176 7.63583 13.344 6.80078 13.3269C5.8802 13.308 4.10939 12.8334 2.79297 12.4277C1.17832 11.9301 -0.104962 11.667 0.00678326 10.8219C0.0649872 10.3817 0.704344 9.93151 1.92485 9.47134Z" fill="white"/>
</svg>
